PathFileType	4	(X/Y/Z)	\\Move.snu.ac.kr\motion\Animal\091204_091205_Bird\091205_bird\Project 2\Capture day 2\Session 1\pigeon_011.trc
DataRate	CameraRate	NumFrames	NumMarkers	Units	OrigDataRate	OrigDataStartFrame	OrigNumFrames
240.0	240.0	18	14	mm	240.0	1	1439
Frame#	Time	14MarkersBird:Head			14MarkersBird:C_back			14MarkersBird:Spine			14MarkersBird:L-shoulder			14MarkersBird:L-elbow			14MarkersBird:L-wrist			14MarkersBird:L-hand			14MarkersBird:R-shoulder			14MarkersBird:R-elbow			14MarkersBird:R-Wrist			14MarkersBird:R-hand			14MarkersBird:C_Tail			14MarkersBird:L-Tale			14MarkersBird:R-Tale			
		X1	Y1	Z1	X2	Y2	Z2	X3	Y3	Z3	X4	Y4	Z4	X5	Y5	Z5	X6	Y6	Z6	X7	Y7	Z7	X8	Y8	Z8	X9	Y9	Z9	X10	Y10	Z10	X11	Y11	Z11	X12	Y12	Z12	X13	Y13	Z13	X14	Y14	Z14	

618	2.571	-895.49127	1373.94568	-2062.77173	-893.15851	1382.76001	-2121.24194	-900.30591	1376.42737	-2177.10254	-870.85571	1371.85388	-2096.02637	-873.62000	1392.85034	-2136.70850	-840.44489	1409.40356	-2112.18896	-823.77069	1396.20593	-2131.08472	-908.91052	1379.96741	-2093.36353	-907.49890	1400.55042	-2128.22827	-930.26709	1421.30505	-2098.75806	-963.97028	1410.77722	-2107.68945	-906.51056	1304.79541	-2279.88354	-820.73376	1319.84338	-2223.10254	-998.88379	1332.99268	-2220.76782	
619	2.575	-894.23920	1370.69800	-2053.49683	-891.84235	1379.36633	-2111.98389	-899.46686	1372.49561	-2167.94092	-870.02374	1368.67993	-2087.03760	-878.29858	1391.08936	-2127.19751	-844.18408	1413.48108	-2105.83984	-828.13470	1409.91040	-2129.26025	-907.31622	1376.73901	-2084.32373	-900.90082	1397.26160	-2118.68750	-923.29895	1424.33521	-2093.40527	-955.53003	1425.79089	-2110.99683	-903.86053	1299.68237	-2270.03760	-817.43585	1319.31531	-2211.90869	-998.95325	1331.53345	-2210.34082	
620	2.579	-892.94110	1367.53064	-2044.26099	-890.44397	1375.90125	-2102.87524	-898.64508	1368.71265	-2158.90332	-868.90234	1365.44421	-2078.33765	-878.73181	1389.09558	-2115.95605	-847.18494	1416.19910	-2098.51392	-834.66504	1422.25208	-2123.52930	-906.25964	1373.24805	-2075.31714	-896.58698	1393.70093	-2108.33276	-916.90106	1426.04578	-2086.73950	-942.60638	1438.78406	-2111.13599	-901.19257	1294.78235	-2260.57520	-814.50934	1318.60889	-2201.15161	-999.25684	1330.02905	-2199.57593	
621	2.583	-891.54913	1364.37402	-2035.15393	-888.95776	1372.27063	-2093.93872	-897.73730	1364.87256	-2149.93774	-867.51434	1362.25122	-2069.78149	-877.50061	1387.35779	-2104.56592	-848.51367	1417.50964	-2090.31348	-841.55212	1431.58813	-2114.54810	-905.66699	1369.48792	-2066.33716	-894.32306	1390.57104	-2097.19629	-912.41437	1426.65186	-2078.89868	-928.65021	1448.41321	-2107.04150	-898.73053	1290.31897	-2251.65161	-812.00464	1317.60950	-2190.89502	-999.68195	1328.47424	-2188.67847	
622	2.588	-890.04413	1361.20557	-2026.19385	-887.36823	1368.42969	-2085.33813	-896.73883	1360.92542	-2141.17480	-866.02197	1359.09204	-2061.27246	-874.66974	1385.51111	-2093.80908	-847.55634	1417.22180	-2081.49756	-846.41168	1436.97583	-2103.34155	-905.00989	1366.00037	-2057.46460	-893.51099	1388.11694	-2085.53027	-910.82550	1426.14050	-2070.15869	-917.92877	1454.45044	-2098.55029	-896.71741	1286.50708	-2243.33276	-809.94165	1316.28345	-2181.14746	-1000.06696	1327.05017	-2177.93921	
623	2.592	-888.39551	1358.05920	-2017.37048	-885.70483	1364.45508	-2076.98730	-895.66119	1356.93530	-2132.55957	-864.52533	1355.92053	-2052.79736	-870.42657	1383.13367	-2084.12817	-844.02423	1414.98975	-2072.43530	-846.79413	1438.36914	-2091.04297	-904.54059	1362.65271	-2048.68408	-893.78992	1386.08167	-2073.92627	-912.52332	1424.21899	-2060.84814	-913.81317	1457.32520	-2086.61523	-895.38593	1283.47681	-2235.53418	-808.31073	1314.62781	-2171.86548	-1000.23157	1325.86353	-2167.55493	
624	2.596	-886.58649	1355.01526	-2008.67603	-883.99695	1360.42334	-2068.79932	-894.51599	1352.96594	-2124.03760	-863.02173	1352.70190	-2044.37109	-865.03644	1379.92053	-2075.25586	-838.08954	1410.44995	-2063.50562	-841.17078	1436.13367	-2078.66504	-903.97821	1359.33179	-2039.91577	-895.19818	1383.89636	-2062.95410	-917.25439	1420.45142	-2051.24683	-917.51868	1457.04810	-2072.84351	-894.91479	1281.14258	-2228.01001	-807.05817	1312.54041	-2162.96875	-1000.04620	1324.73462	-2157.54175	
625	2.600	-884.67981	1352.14404	-2000.05994	-882.27405	1356.41125	-2060.68774	-893.31476	1349.08154	-2115.55396	-861.47577	1349.39722	-2035.95569	-858.78912	1375.66711	-2066.52588	-830.28589	1403.49817	-2054.82373	-829.73511	1430.30908	-2066.90796	-903.23022	1355.87231	-2031.02100	-897.68359	1381.12781	-2052.96094	-924.24847	1414.46863	-2041.39697	-928.00482	1452.95898	-2058.55103	-895.32391	1279.15576	-2220.40649	-806.13373	1309.69006	-2154.36621	-999.50287	1323.20630	-2147.80273	
626	2.604	-882.80194	1349.44019	-1991.42688	-880.56555	1352.49524	-2052.56567	-892.06909	1345.34583	-2107.05371	-859.85144	1345.98157	-2027.45422	-852.03595	1370.29187	-2057.34058	-821.41479	1394.22229	-2046.09949	-814.51221	1420.46240	-2055.80688	-902.40894	1352.12134	-2021.92419	-901.03925	1377.52893	-2043.66895	-932.40326	1406.06079	-2031.03723	-942.69067	1444.31274	-2043.96350	-896.37335	1277.01941	-2212.37598	-805.51990	1305.61462	-2145.99634	-998.69556	1320.75146	-2138.21924	
627	2.608	-881.02222	1346.89063	-1982.67285	-878.90082	1348.75208	-2044.34668	-890.79065	1341.82288	-2098.48193	-858.13086	1342.43811	-2018.80933	-845.21478	1363.88965	-2047.37463	-812.45154	1382.79858	-2036.74060	-798.43066	1406.32239	-2044.54492	-901.65369	1347.98071	-2012.64429	-905.05096	1372.94458	-2034.26477	-940.41229	1395.18445	-2019.69958	-958.53235	1430.80725	-2028.38611	-897.64001	1274.30298	-2203.68604	-805.25671	1300.09277	-2137.84204	-997.73779	1317.05933	-2128.71875	
628	2.612	-879.29889	1344.49231	-1973.69202	-877.30939	1345.25830	-2035.94397	-889.49091	1338.57642	-2089.78442	-856.30566	1338.76355	-2010.00476	-838.81812	1357.55334	-2037.54187	-804.39014	1369.39636	-2026.10498	-784.06232	1388.47205	-2031.95642	-900.91528	1343.46143	-2003.18860	-909.38489	1367.41479	-2024.03870	-947.01178	1381.99011	-2006.97192	-972.75189	1412.72156	-2011.05750	-898.72339	1270.82678	-2194.25024	-805.42169	1293.43213	-2129.89673	-996.65021	1312.34021	-2119.28198	
629	2.617	-877.55121	1342.20374	-1964.47266	-875.82062	1342.09070	-2027.27087	-888.18146	1335.67041	-2080.90601	-854.50513	1334.89050	-2001.08838	-834.82776	1349.46436	-2026.39563	-798.08575	1354.31458	-2013.77698	-773.03943	1368.08716	-2017.27087	-899.99957	1338.75916	-1993.58679	-913.53345	1360.93030	-2012.70679	-951.29523	1366.75659	-1992.80396	-983.21240	1390.80225	-1991.93994	-899.42902	1266.73010	-2184.12109	-806.02209	1286.38416	-2122.10742	-995.37964	1307.31506	-2109.93359	
630	2.621	-875.73431	1339.94727	-1955.09302	-874.46393	1339.32581	-2018.24097	-886.87384	1333.16907	-2071.79175	-852.80670	1330.91846	-1992.01099	-830.84479	1341.46924	-2014.95728	-794.26135	1338.20117	-1999.83240	-766.34692	1346.19861	-2000.51953	-898.81311	1334.28027	-1983.82703	-916.94562	1353.34204	-2000.34973	-952.81146	1350.10364	-1977.74414	-988.49786	1366.14795	-1971.85071	-899.80292	1262.44421	-2173.48438	-806.93988	1279.76904	-2114.41357	-993.89490	1302.74438	-2100.72705	
631	2.625	-873.87921	1337.63623	-1945.58032	-873.26880	1337.04016	-2008.76733	-885.57977	1331.13586	-2062.38721	-851.14758	1327.15234	-1982.64453	-829.09259	1334.70935	-2005.63879	-793.45691	1321.99658	-1984.82935	-764.69702	1323.64392	-1982.47571	-897.45697	1330.30579	-1973.89673	-919.15063	1344.76709	-1987.39197	-951.23822	1333.06470	-1962.60339	-987.87469	1340.01465	-1952.00256	-900.01160	1258.53149	-2162.62695	-807.97174	1274.13049	-2106.77710	-992.20251	1298.97815	-2091.71313	
632	2.629	-872.01874	1335.17053	-1935.94080	-872.20990	1335.17102	-1998.92615	-884.31067	1329.63513	-2052.63745	-849.53461	1323.81873	-1972.97546	-827.34930	1325.27734	-1993.58643	-795.90576	1306.77991	-1969.60803	-768.55273	1301.53467	-1964.21484	-896.02124	1326.77490	-1963.93396	-919.95294	1335.72839	-1974.44617	-946.25323	1316.86865	-1947.99597	-981.10950	1313.91125	-1933.52417	-900.16577	1255.43066	-2151.86279	-808.89874	1269.61047	-2099.16602	-990.32001	1295.90466	-2082.89819	
633	2.633	-870.16931	1332.47253	-1926.18042	-871.07050	1333.26025	-1989.11072	-883.05267	1328.60754	-2042.59814	-848.03033	1320.96411	-1963.07751	-825.16565	1317.03748	-1982.19507	-801.18219	1293.83008	-1954.84546	-777.68103	1281.68762	-1946.68335	-894.52576	1323.55884	-1954.04114	-919.40662	1326.99780	-1962.17383	-937.99207	1302.78064	-1934.28772	-968.78265	1289.87183	-1917.24426	-900.19348	1253.25500	-2141.42676	-809.56653	1266.07361	-2091.53613	-988.29181	1293.14014	-2074.21045	
634	2.638	-868.34473	1329.47888	-1916.27991	-870.06342	1331.59900	-1979.18396	-881.81177	1327.30383	-2032.59119	-846.57526	1318.54712	-1952.96423	-823.99585	1309.99524	-1971.44885	-808.09534	1284.39453	-1940.89221	-790.65851	1266.43201	-1930.47449	-892.96265	1320.62549	-1944.09082	-917.82233	1319.28943	-1951.04529	-927.39270	1291.91467	-1921.71338	-952.35602	1270.22583	-1903.37964	-899.84772	1251.80286	-2131.40625	-809.86298	1263.32922	-2083.83130	-986.16052	1290.21582	-2065.51245	
635	2.642	-866.54596	1326.16248	-1906.20129	-869.05548	1329.98767	-1969.07080	-880.58667	1325.42053	-2022.38318	-845.11176	1316.38989	-1942.65076	-823.51746	1304.30957	-1961.65540	-814.85437	1279.24023	-1927.90674	-804.81494	1257.58008	-1915.77234	-891.31396	1317.90417	-1933.92871	-915.73669	1313.00793	-1941.15747	-916.37714	1284.95313	-1910.47937	-934.13776	1256.87073	-1891.52332	-898.87531	1250.72986	-2121.73315	-809.65741	1261.27563	-2075.95410	-983.93616	1286.66992	-2056.62622	
